<svg height="512" viewBox="0 0 58 58" width="512" xmlns="http://www.w3.org/2000/svg"><g id="Page-1" fill="none" fill-rule="evenodd"><g id="049---Poll" fill-rule="nonzero"><path id="Shape" d="m0 34h58v23c0 .5522847-.4477153 1-1 1h-56c-.55228475 0-1-.4477153-1-1z" fill="#955ba5"/><path id="Shape" d="m42 17h7.3654c.3873546.0000067.7398644.2237148.9048.5742l7.7298 16.4258h-58l7.73-16.4258c.16490481-.3504198.51731768-.5741158.9046-.5742z" fill="#b49aca"/><path id="Shape" d="m17 0h24c.5522847 0 1 .44771525 1 1v26h-26v-26c0-.55228475.4477153-1 1-1z" fill="#f3d55b"/><path id="Shape" d="m46 28h-34c-.5522847 0-1-.4477153-1-1s.4477153-1 1-1h34c.5522847 0 1 .4477153 1 1s-.4477153 1-1 1z" fill="#955ba5"/><rect id="Rectangle-path" fill="#65ddb9" height="12" rx="1" width="32" x="13" y="40"/><path id="Shape" d="m39 47h-20c-.5522847 0-1-.4477153-1-1s.4477153-1 1-1h20c.5522847 0 1 .4477153 1 1s-.4477153 1-1 1z" fill="#33907c"/><g fill="#2c3e50"><path id="Shape" d="m33 6h-12c-.5522847 0-1-.44771525-1-1s.4477153-1 1-1h12c.5522847 0 1 .44771525 1 1s-.4477153 1-1 1z"/><path id="Shape" d="m27 11h-6c-.5522847 0-1-.4477153-1-1 0-.55228475.4477153-1 1-1h6c.5522847 0 1 .44771525 1 1 0 .5522847-.4477153 1-1 1z"/><path id="Shape" d="m37 11h-6c-.5522847 0-1-.4477153-1-1 0-.55228475.4477153-1 1-1h6c.5522847 0 1 .44771525 1 1 0 .5522847-.4477153 1-1 1z"/><path id="Shape" d="m37 15h-16c-.5522847 0-1-.4477153-1-1s.4477153-1 1-1h16c.5522847 0 1 .4477153 1 1s-.4477153 1-1 1z"/><path id="Shape" d="m30 19h-9c-.5522847 0-1-.4477153-1-1s.4477153-1 1-1h9c.5522847 0 1 .4477153 1 1s-.4477153 1-1 1z"/><path id="Shape" d="m37 19h-3c-.5522847 0-1-.4477153-1-1s.4477153-1 1-1h3c.5522847 0 1 .4477153 1 1s-.4477153 1-1 1z"/><path id="Shape" d="m37 23h-16c-.5522847 0-1-.4477153-1-1s.4477153-1 1-1h16c.5522847 0 1 .4477153 1 1s-.4477153 1-1 1z"/></g></g></g></svg>